<?xml version="1.0"?>
<svg xmlns="http://www.w3.org/2000/svg" id="Layer" enable-background="new 0 0 64 64" height="512px" viewBox="0 0 64 64" width="512px"><g><path d="m54 8h-44c-1.104 0-2 .896-2 2s.896 2 2 2h44c1.104 0 2-.896 2-2s-.896-2-2-2z" data-original="#000000" class="active-path" data-old_color="#000000" fill="#194251"/><path d="m54 52h-44c-1.104 0-2 .896-2 2s.896 2 2 2h44c1.104 0 2-.896 2-2s-.896-2-2-2z" data-original="#000000" class="active-path" data-old_color="#000000" fill="#194251"/><path d="m10 23h28c1.104 0 2-.896 2-2s-.896-2-2-2h-28c-1.104 0-2 .896-2 2s.896 2 2 2z" data-original="#000000" class="active-path" data-old_color="#000000" fill="#194251"/><path d="m54 30h-44c-1.104 0-2 .896-2 2s.896 2 2 2h44c1.104 0 2-.896 2-2s-.896-2-2-2z" data-original="#000000" class="active-path" data-old_color="#000000" fill="#194251"/><path d="m10 45h28c1.104 0 2-.896 2-2s-.896-2-2-2h-28c-1.104 0-2 .896-2 2s.896 2 2 2z" data-original="#000000" class="active-path" data-old_color="#000000" fill="#194251"/></g> </svg>
